<svg width="100" height="100" viewBox="0 0 100 100" fill="none" xmlns="http://www.w3.org/2000/svg">
<rect width="100" height="100" fill="black"/>
<path fill-rule="evenodd" clip-rule="evenodd" d="M68.8327 45.9834V51.2711C68.8327 56.5193 67.5755 60.7529 64.9219 63.8024C62.4496 66.6441 58.7946 68.423 53.85 68.9971V78H45.15V69.0834C40.0694 68.3913 36.3723 66.7567 33.9065 64.0047C31.3565 61.1575 30.1683 57.1688 30.1705 51.8462L30.1727 45.9834H29.3676C28.0662 45.9834 27 44.9032 27 43.5846V40.8019C27 39.4822 28.0662 38.403 29.3676 38.403H36.5935V25.7995C36.5935 23.709 38.2813 22 40.3435 22C42.4058 22 44.0924 23.7122 44.0924 25.7995V38.403H55.0996V25.7995C55.0996 23.709 56.7863 22 58.8496 22C60.9119 22 62.5996 23.7122 62.5996 25.7995V38.403H69.6313C70.9338 38.403 72 39.4822 72 40.8019V43.5846C72 44.9032 70.9338 45.9834 69.6313 45.9834H68.8327ZM51.1856 50.4204H53.4637C53.572 50.4204 53.6782 50.4502 53.7711 50.5066C53.8639 50.5631 53.9399 50.644 53.9909 50.7408C54.0419 50.8376 54.0659 50.9466 54.0605 51.0562C54.0551 51.1658 54.0204 51.2718 53.9601 51.3629L48.5363 60.7387C48.4545 60.8756 48.3225 60.974 48.1692 61.0125C48.0159 61.051 47.8538 61.0265 47.7183 60.9443C47.6128 60.8796 47.5295 60.7834 47.48 60.6689C47.4306 60.5543 47.4173 60.4271 47.4421 60.3046L48.2417 54.5523L45.545 54.5993C45.3871 54.6014 45.2349 54.5402 45.1214 54.429C45.008 54.3177 44.9426 54.1655 44.9396 54.0056C44.9396 53.8897 44.9698 53.7826 45.0237 53.6896L50.3579 44.3182C50.3976 44.2499 50.4503 44.1902 50.5128 44.1425C50.5753 44.0948 50.6464 44.0601 50.7222 44.0403C50.798 44.0205 50.8769 44.016 50.9543 44.0271C51.0318 44.0382 51.1064 44.0647 51.1737 44.105C51.2751 44.1658 51.3564 44.2557 51.4073 44.3634C51.4582 44.471 51.4764 44.5915 51.4597 44.7096L51.1856 50.4204Z" fill="white"/>
</svg>
