<svg width="254" height="254" viewBox="0 0 254 254" fill="none" xmlns="http://www.w3.org/2000/svg">
<rect width="254" height="254" fill="white"/>
<path fill-rule="evenodd" clip-rule="evenodd" d="M180.785 116.07V130.46C180.785 144.743 177.336 156.264 170.057 164.563C163.275 172.296 153.248 177.138 139.684 178.7V203.201H115.818V178.935C101.881 177.051 91.7394 172.603 84.9751 165.113C77.98 157.365 74.7207 146.51 74.7266 132.025L74.7325 116.07H72.5242C68.9541 116.07 66.0293 113.13 66.0293 109.542V101.969C66.0293 98.3773 68.9541 95.4404 72.5242 95.4404H92.3463V61.1409C92.3463 55.4516 96.9761 50.8008 102.633 50.8008C108.29 50.8008 112.917 55.4605 112.917 61.1409V95.4404H143.112V61.1409C143.112 55.4516 147.739 50.8008 153.399 50.8008C159.056 50.8008 163.686 55.4605 163.686 61.1409V95.4404H182.975C186.549 95.4404 189.473 98.3773 189.473 101.969V109.542C189.473 113.13 186.549 116.07 182.975 116.07H180.785ZM132.375 128.145H138.624C138.921 128.145 139.213 128.226 139.468 128.38C139.722 128.533 139.931 128.753 140.071 129.017C140.211 129.28 140.277 129.577 140.262 129.875C140.247 130.173 140.152 130.462 139.986 130.71L125.108 156.225C124.883 156.598 124.521 156.866 124.101 156.971C123.68 157.075 123.235 157.009 122.864 156.785C122.574 156.609 122.346 156.347 122.21 156.035C122.074 155.724 122.038 155.377 122.106 155.044L124.3 139.39L116.902 139.518C116.469 139.523 116.051 139.357 115.74 139.054C115.429 138.751 115.25 138.337 115.241 137.902C115.241 137.586 115.324 137.295 115.472 137.042L130.105 111.538C130.214 111.352 130.358 111.19 130.53 111.06C130.701 110.93 130.896 110.836 131.104 110.782C131.312 110.728 131.528 110.716 131.741 110.746C131.953 110.776 132.158 110.848 132.343 110.958C132.621 111.124 132.844 111.368 132.983 111.661C133.123 111.954 133.173 112.282 133.127 112.603L132.375 128.145Z" fill="black"/>
</svg>
