<svg width="260" height="255" viewBox="0 0 260 255" fill="none" xmlns="http://www.w3.org/2000/svg">
<rect x="259.264" y="0.646484" width="253.676" height="258.524" transform="rotate(90 259.264 0.646484)" fill="white"/>
<rect x="0.738281" width="258.524" height="254.323" fill="url(#paint0_linear_300_86)"/>
<path fill-rule="evenodd" clip-rule="evenodd" d="M182.939 116.26V130.648C182.939 144.929 179.514 156.448 172.287 164.746C165.553 172.478 155.598 177.319 142.131 178.881V203.378H118.435V179.116C104.597 177.233 94.5271 172.785 87.811 165.296C80.8656 157.549 77.6295 146.696 77.6354 132.213L77.6413 116.26H75.4486C71.9039 116.26 69 113.321 69 109.732V102.161C69 98.5697 71.9039 95.6332 75.4486 95.6332H95.1296V61.3387C95.1296 55.6502 99.7265 51 105.343 51C110.96 51 115.554 55.6591 115.554 61.3387V95.6332H145.534V61.3387C145.534 55.6502 150.128 51 155.748 51C161.365 51 165.962 55.6591 165.962 61.3387V95.6332H185.114C188.661 95.6332 191.565 98.5697 191.565 102.161V109.732C191.565 113.321 188.661 116.26 185.114 116.26H182.939ZM134.874 128.333H141.078C141.373 128.333 141.663 128.414 141.916 128.568C142.169 128.721 142.375 128.942 142.514 129.205C142.653 129.468 142.719 129.765 142.704 130.063C142.689 130.361 142.595 130.65 142.43 130.898L127.658 156.41C127.435 156.782 127.075 157.05 126.658 157.155C126.24 157.26 125.799 157.193 125.43 156.969C125.142 156.793 124.916 156.531 124.781 156.22C124.646 155.908 124.61 155.562 124.678 155.229L126.855 139.576L119.51 139.704C119.08 139.71 118.666 139.543 118.357 139.241C118.048 138.938 117.87 138.524 117.861 138.089C117.861 137.773 117.944 137.482 118.091 137.229L132.619 111.729C132.727 111.543 132.871 111.381 133.041 111.251C133.211 111.121 133.405 111.026 133.612 110.973C133.818 110.919 134.033 110.907 134.244 110.937C134.455 110.967 134.658 111.039 134.841 111.149C135.117 111.314 135.339 111.559 135.477 111.852C135.616 112.145 135.666 112.472 135.62 112.794L134.874 128.333Z" fill="url(#paint1_linear_300_86)" fill-opacity="0.69"/>
<defs>
<linearGradient id="paint0_linear_300_86" x1="91.7063" y1="-13.4522" x2="289.712" y2="294.856" gradientUnits="userSpaceOnUse">
<stop stop-color="#CA5DB1"/>
<stop offset="1" stop-color="#D93E41" stop-opacity="0"/>
</linearGradient>
<linearGradient id="paint1_linear_300_86" x1="190.998" y1="-24.3933" x2="-51.068" y2="166.321" gradientUnits="userSpaceOnUse">
<stop stop-color="#8120FF" stop-opacity="0.83"/>
<stop offset="1" stop-color="#B80000" stop-opacity="0.5"/>
</linearGradient>
</defs>
</svg>
